# File created by Blade
# Date/Time:  Thu Sep 25 19:43:58 2014
# Frame Rate: 120.000 fps
#------------------------------------------------------
:FULLY-SPECIFIED
:DEGREES
350
root 0.894201 16.226487 -9.820199 39.351992 32.371510 -11.278895
Spine 12.953380 -4.687047 -17.210687
Head -42.483092 -2.579828 19.205557
LeftShoulder 2.643032 7.325276 22.360482
LeftArm 28.749862 9.446418 -39.105315
LeftForeArm 11.839983 -0.000000 33.159734
LeftHand -35.044320 -0.000000 41.963190
LeftHandThumb1 -26.253704 0.000000 33.147579
RightShoulder -16.185412 19.254442 -30.635460
RightArm -13.328521 13.711706 45.922849
RightForeArm -16.591177 -0.000000 17.103131
RightHand -9.664498 0.000000 1.685217
RightHandThumb1 -24.326973 -0.000000 -32.862282
LeftUpLeg -137.523336 30.458248 -4.741156
LeftLeg 107.005900 -0.000000 -0.000000
LeftFoot -18.667474 -16.815328 -15.406254
LeftToeBase -0.898974 -0.000000 0.000000
RightUpLeg -11.761031 -44.709069 -33.641806
RightLeg 5.920535 -0.000000 -0.000000
RightFoot -3.428052 -18.798219 45.072901
RightToeBase 6.989014 -0.000000 -0.000000
351
root 0.910062 16.211083 -9.819630 39.265053 32.294158 -11.339153
Spine 13.051752 -4.749671 -17.539862
Head -42.280738 -2.654077 19.137055
LeftShoulder 2.563956 7.383252 22.154092
LeftArm 28.569256 9.387119 -39.229802
LeftForeArm 12.345943 -0.000000 33.221935
LeftHand -35.449751 -0.000000 43.440128
LeftHandThumb1 -26.253704 0.000000 33.147579
RightShoulder -16.159533 19.344017 -30.724735
RightArm -13.581839 13.628620 45.811237
RightForeArm -16.294770 -0.000000 16.935563
RightHand -9.655653 -0.000000 1.659897
RightHandThumb1 -24.326973 -0.000000 -32.862282
LeftUpLeg -137.539688 30.546866 -4.760844
LeftLeg 107.132563 -0.000000 -0.000000
LeftFoot -18.715782 -16.807829 -15.436837
LeftToeBase -0.873621 -0.000000 0.000000
RightUpLeg -11.764263 -44.647841 -33.675882
RightLeg 5.941420 -0.000000 -0.000000
RightFoot -3.306649 -18.756014 44.939199
RightToeBase 6.710761 -0.000000 -0.000000
352
root 0.926830 16.198196 -9.821747 39.203869 32.187232 -11.390813
Spine 13.110896 -4.821226 -17.936954
Head -42.059557 -2.681206 19.165911
LeftShoulder 2.427150 7.507261 22.003026
LeftArm 28.464127 9.320731 -39.351202
LeftForeArm 12.695319 -0.000000 33.296223
LeftHand -35.639619 -0.000000 44.592566
LeftHandThumb1 -26.253704 0.000000 33.147579
RightShoulder -16.100185 19.238803 -30.726257
RightArm -13.645004 13.668304 45.743807
RightForeArm -16.160536 -0.000000 16.814122
RightHand -9.491581 -0.000000 1.390555
RightHandThumb1 -24.326973 -0.000000 -32.862282
LeftUpLeg -137.564607 30.645558 -4.805552
LeftLeg 107.242025 -0.000000 -0.000000
LeftFoot -18.756090 -16.830497 -15.486101
LeftToeBase -0.881314 -0.000000 0.000000
RightUpLeg -11.839858 -44.544647 -33.697960
RightLeg 6.003606 -0.000000 -0.000000
RightFoot -3.267831 -18.782347 44.478347
RightToeBase 6.964530 -0.000000 -0.000000
353
root 0.945591 16.182180 -9.822460 39.116946 32.076208 -11.421832
Spine 13.188217 -4.765686 -18.341497
Head -41.850322 -2.856797 19.214449
LeftShoulder 2.408566 7.611667 21.904042
LeftArm 28.366088 9.197361 -39.514910
LeftForeArm 13.007815 -0.000000 33.398295
LeftHand -35.884881 -0.000000 45.221859
LeftHandThumb1 -26.253704 0.000000 33.147579
RightShoulder -16.146766 19.196454 -30.792600
RightArm -13.776347 13.616603 45.644255
RightForeArm -16.060263 -0.000000 16.618879
RightHand -9.514130 -0.000000 1.272327
RightHandThumb1 -24.326973 -0.000000 -32.862282
LeftUpLeg -137.552039 30.744831 -4.830959
LeftLeg 107.375089 -0.000000 -0.000000
LeftFoot -19.019027 -16.785215 -15.215188
LeftToeBase -0.362480 -0.000000 0.000000
RightUpLeg -11.856043 -44.488560 -33.774056
RightLeg 6.047500 -0.000000 -0.000000
RightFoot -3.162551 -18.767263 44.212704
RightToeBase 6.965919 -0.000000 -0.000000
354
root 0.962894 16.168024 -9.822751 39.044824 31.990561 -11.437186
Spine 13.274605 -4.776285 -18.755961
Head -41.637751 -2.948468 19.214367
LeftShoulder 2.332527 7.669481 21.789856
LeftArm 28.230828 9.063261 -39.683052
LeftForeArm 13.498512 -0.000000 33.481855
LeftHand -36.056649 -0.000000 46.067434
LeftHandThumb1 -26.253704 0.000000 33.147579
RightShoulder -16.193118 19.153464 -30.866144
RightArm -13.881372 13.561941 45.571755
RightForeArm -15.853622 0.000000 16.469404
RightHand -9.450143 -0.000000 1.213368
RightHandThumb1 -24.326973 -0.000000 -32.862282
LeftUpLeg -137.530257 30.812286 -4.856136
LeftLeg 107.492713 -0.000000 -0.000000
LeftFoot -19.104684 -16.735156 -15.002736
LeftToeBase -0.566047 -0.000000 0.000000
RightUpLeg -11.863782 -44.410817 -33.852847
RightLeg 6.105793 -0.000000 -0.000000
RightFoot -3.171176 -18.788119 44.089073
RightToeBase 6.994106 -0.000000 -0.000000
355
root 0.982646 16.152612 -9.822871 38.991981 31.872605 -11.409728
Spine 13.329094 -4.770910 -19.261412
Head -41.384032 -3.040991 19.307934
LeftShoulder 2.260759 7.743096 21.717342
LeftArm 28.081973 9.048261 -39.753106
LeftForeArm 13.696569 -0.000000 33.656634
LeftHand -36.166627 0.000000 46.482564
LeftHandThumb1 -26.253704 0.000000 33.147579
RightShoulder -16.195366 19.110351 -30.865894
RightArm -14.029459 13.629101 45.408823
RightForeArm -15.693673 -0.000000 16.365944
RightHand -9.458402 -0.000000 1.311741
RightHandThumb1 -24.326973 -0.000000 -32.862282
LeftUpLeg -137.505290 30.889107 -4.925976
LeftLeg 107.629752 -0.000000 -0.000000
LeftFoot -19.192776 -16.713310 -14.759238
LeftToeBase -0.771221 -0.000000 0.000000
RightUpLeg -11.859593 -44.346265 -33.994745
RightLeg 6.166054 -0.000000 -0.000000
RightFoot -3.104569 -18.773487 43.761468
RightToeBase 7.028634 -0.000000 -0.000000
356
root 1.002961 16.136883 -9.824450 38.929401 31.784871 -11.418512
Spine 13.368513 -4.762466 -19.674930
Head -41.139002 -3.196419 19.330220
LeftShoulder 2.214201 7.795439 21.621299
LeftArm 27.927862 8.918203 -39.936557
LeftForeArm 14.109128 0.000000 33.782293
LeftHand -36.286582 -0.000000 47.308740
LeftHandThumb1 -26.253704 0.000000 33.147579
RightShoulder -16.240934 19.071979 -30.912539
RightArm -14.139908 13.710633 45.219104
RightForeArm -15.617747 -0.000000 16.237789
RightHand -9.517431 -0.000000 1.626669
RightHandThumb1 -24.326973 -0.000000 -32.862282
LeftUpLeg -137.490541 30.956970 -4.939945
LeftLeg 107.754750 -0.000000 -0.000000
LeftFoot -19.250294 -16.778559 -14.963969
LeftToeBase -0.457354 -0.000000 0.000000
RightUpLeg -11.845276 -44.207217 -34.117275
RightLeg 6.230044 -0.000000 -0.000000
RightFoot -3.029955 -18.793701 43.584599
RightToeBase 6.888530 -0.000000 -0.000000
357
root 1.022073 16.120065 -9.824642 38.867840 31.702751 -11.431463
Spine 13.382615 -4.794545 -20.091564
Head -40.858302 -3.277105 19.278462
LeftShoulder 2.136714 7.824615 21.540322
LeftArm 27.730160 8.874076 -40.097121
LeftForeArm 14.473846 -0.000000 33.924572
LeftHand -36.402894 -0.000000 47.882880
LeftHandThumb1 -26.253704 0.000000 33.147579
RightShoulder -16.233480 19.053492 -30.953898
RightArm -14.295299 13.827393 45.016726
RightForeArm -15.447136 -0.000000 16.182638
RightHand -9.299689 -0.000000 1.537480
RightHandThumb1 -24.326973 -0.000000 -32.862282
LeftUpLeg -137.523815 30.927660 -5.037008
LeftLeg 107.811859 -0.000000 -0.000000
LeftFoot -19.320736 -16.455241 -14.841768
LeftToeBase -1.018951 -0.000000 0.000000
RightUpLeg -11.840519 -44.091042 -34.208318
RightLeg 6.273365 -0.000000 -0.000000
RightFoot -3.027183 -18.844820 43.421689
RightToeBase 6.828625 -0.000000 -0.000000
358
root 1.039708 16.102389 -9.823924 38.761551 31.607415 -11.501551
Spine 13.398610 -4.734680 -20.448927
Head -40.664560 -3.420272 19.225841
LeftShoulder 2.118310 7.980610 21.480073
LeftArm 27.631884 8.703263 -40.277019
LeftForeArm 14.923635 -0.000000 34.038774
LeftHand -36.502081 0.000000 48.596855
LeftHandThumb1 -26.253704 0.000000 33.147579
RightShoulder -16.296583 19.058473 -31.038516
RightArm -14.445429 13.823392 44.826379
RightForeArm -15.271840 -0.000000 16.128553
RightHand -9.449217 -0.000000 1.627371
RightHandThumb1 -24.326973 -0.000000 -32.862282
LeftUpLeg -137.522032 31.042539 -5.024807
LeftLeg 107.959743 -0.000000 -0.000000
LeftFoot -19.440073 -16.464318 -14.794768
LeftToeBase -0.828594 -0.000000 0.000000
RightUpLeg -11.841208 -43.891008 -34.269426
RightLeg 6.316644 -0.000000 -0.000000
RightFoot -3.051686 -18.912507 43.217025
RightToeBase 6.862889 -0.000000 -0.000000
359
root 1.060748 16.083819 -9.823797 38.690271 31.524851 -11.520645
Spine 13.391734 -4.743922 -20.844203
Head -40.413087 -3.534163 19.127938
LeftShoulder 2.040513 8.111516 21.397886
LeftArm 27.576211 8.648727 -40.385768
LeftForeArm 15.279033 -0.000000 34.075448
LeftHand -36.567497 -0.000000 49.428090
LeftHandThumb1 -26.253704 0.000000 33.147579
RightShoulder -16.281527 18.967343 -31.091958
RightArm -14.565184 13.923444 44.646124
RightForeArm -15.002096 -0.000000 16.145387
RightHand -9.431458 -0.000000 1.223341
RightHandThumb1 -24.326973 -0.000000 -32.862282
LeftUpLeg -137.514585 31.125579 -5.022768
LeftLeg 108.125581 -0.000000 -0.000000
LeftFoot -19.514088 -16.548328 -14.836265
LeftToeBase -0.664702 -0.000000 0.000000
RightUpLeg -11.818569 -43.727128 -34.375160
RightLeg 6.357018 -0.000000 -0.000000
RightFoot -3.046866 -19.012167 42.937656
RightToeBase 6.877362 -0.000000 -0.000000
360
root 1.079848 16.064355 -9.823513 38.603115 31.472896 -11.536002
Spine 13.431958 -4.774933 -21.209824
Head -40.246202 -3.655041 19.024472
LeftShoulder 1.994279 8.156820 21.334383
LeftArm 27.405990 8.576679 -40.564945
LeftForeArm 15.777385 -0.000000 34.161223
LeftHand -36.844273 -0.000000 50.269503
LeftHandThumb1 -26.253704 0.000000 33.147579
RightShoulder -16.318347 18.989340 -31.204381
RightArm -14.739722 14.002254 44.426204
RightForeArm -14.781856 0.000000 16.105653
RightHand -9.281680 -0.000000 1.302245
RightHandThumb1 -24.326973 -0.000000 -32.862282
LeftUpLeg -137.483831 31.183655 -4.998491
LeftLeg 108.271773 -0.000000 -0.000000
LeftFoot -19.557130 -16.666998 -14.969671
LeftToeBase -0.497798 -0.000000 0.000000
RightUpLeg -11.742055 -43.559105 -34.499208
RightLeg 6.386649 -0.000000 -0.000000
RightFoot -3.037934 -19.133107 42.545018
RightToeBase 6.954020 -0.000000 -0.000000
